<?xml version="1.0" encoding="UTF-8"?>
<svg width="300px" height="28px" viewBox="0 0 300 28" version="1.1" xmlns="http://www.w3.org/2000/svg" xmlns:xlink="http://www.w3.org/1999/xlink">
  <g id="Page-1" stroke="none" stroke-width="1" fill="none" fill-rule="evenodd">
    <path
      d="M217.17673,22.3986373 L210.882394,4.96790242 L207.90724,4.96790242 L201.612903,22.3986373 L205.090059,22.3986373 L206.511814,18.0942088 L212.330477,18.0942088 L213.699574,22.3986373 L217.17673,22.3986373 L217.17673,22.3986373 Z M211.435298,15.2686024 L207.406993,15.2686024 L209.407981,8.95720101 L211.435298,15.2686024 L211.435298,15.2686024 Z M232.708963,22.3986373 L226.416381,4.96790242 L223.442983,4.96790242 L217.148646,22.3986373 L220.624047,22.3986373 L222.045802,18.0942088 L227.864465,18.0942088 L229.233562,22.3986373 L232.708963,22.3986373 L232.708963,22.3986373 Z M226.969286,15.2686024 L222.940981,15.2686024 L224.941969,8.95720101 L226.969286,15.2686024 L226.969286,15.2686024 Z M247.584731,22.3986373 L243.266809,14.9253044 C244.714892,14.5291913 245.320454,14.1594858 245.978674,13.3144446 C246.610565,12.4694034 246.926511,11.3866944 246.926511,10.03991 C246.926511,8.40264273 246.454348,7.13332045 245.504756,6.26187173 C244.479688,5.28479286 243.319466,4.96790242 240.791902,4.96790242 L234.999568,4.96790242 L234.999568,22.3986373 L238.316996,22.3986373 L238.316996,15.4270476 L239.975709,15.4270476 L243.951357,22.3986373 L247.584731,22.3986373 L247.584731,22.3986373 Z M243.503768,10.1191326 C243.503768,11.8620301 242.58226,12.6014411 240.475957,12.6014411 L238.316996,12.6014411 L238.316996,7.79526938 L240.475957,7.79526938 C242.634918,7.79526938 243.503768,8.4554578 243.503768,10.1191326 L243.503768,10.1191326 Z M265.80601,22.3986373 L265.80601,4.96790242 L262.488583,4.96790242 L262.488583,11.9412527 L253.563122,11.9412527 L253.563122,4.96790242 L250.243939,4.96790242 L250.243939,22.3986373 L253.563122,22.3986373 L253.563122,14.9253044 L262.488583,14.9253044 L262.488583,22.3986373 L265.80601,22.3986373 L265.80601,22.3986373 Z M284.552111,15.5854928 L284.552111,4.96790242 L281.234683,4.96790242 L281.234683,15.7703456 C281.234683,18.2790616 279.891915,19.6522535 277.36435,19.6522535 C274.599827,19.6522535 273.257059,18.3582842 273.257059,15.7703456 L273.257059,4.96790242 L269.96596,4.96790242 L269.96596,15.5854928 C269.96596,18.7808048 270.545193,20.2332193 272.335551,21.4743736 C273.651991,22.3722298 275.075501,22.7419353 277.259035,22.7419353 C279.417996,22.7419353 280.892409,22.3458223 282.156191,21.4743736 C283.972877,20.2068118 284.552111,18.7808048 284.552111,15.5854928 L284.552111,15.5854928 Z M299.640264,6.12983404 C298.481797,5.57527577 298.007879,5.39042301 297.165358,5.12634764 C296.085877,4.80945719 295.06081,4.67741951 293.900588,4.67741951 C291.87327,4.67741951 290.79379,4.96790242 289.530008,5.83935114 C288.975348,6.23546419 288.527759,6.68439232 288.239897,7.13332045 C287.816881,7.79526938 287.555348,8.69312564 287.555348,9.56457436 C287.555348,11.465917 288.50143,12.6278487 291.583654,14.3971536 L294.269191,15.9287908 C295.401329,16.5625717 295.798016,17.0643149 295.798016,17.8037259 C295.798016,18.8600274 294.795766,19.5466234 293.268696,19.5466234 C292.584148,19.5466234 291.636311,19.3617706 290.765706,19.0448801 C290.081157,18.7808048 289.556337,18.5167294 288.290799,17.8301334 L286.897129,20.8934077 L288.027511,21.4215585 C289.844198,22.2665997 290.423432,22.47786 291.66264,22.6363052 C292.162887,22.7155278 292.689463,22.7419353 293.216039,22.7419353 C297.061798,22.7419353 299.324319,20.9198153 299.324319,17.8037259 C299.324319,16.5889792 298.876729,15.4270476 298.139523,14.6876365 C297.323331,13.8690029 295.58563,12.7598863 292.926422,11.3338793 C291.688969,10.6736909 291.267708,10.2247628 291.267708,9.48535175 C291.267708,8.50827288 292.268202,7.87449199 293.823356,7.87449199 C294.980068,7.87449199 296.480809,8.29701258 298.323825,9.11564623 L299.640264,6.12983404 L299.640264,6.12983404 Z"
      id="Fill-1" fill="#636462"></path>
    <path
      d="M57.0333783,21.7384489 L57.0333783,14.6084139 L53.7159504,14.6084139 L53.7159504,19.4145857 C52.6891275,19.7050686 52.241538,19.7842912 51.4516743,19.7842912 C47.5813417,19.7842912 44.6061882,17.0643149 44.6061882,13.4992974 C44.6061882,10.03991 47.3180538,7.63682416 51.2147151,7.63682416 C52.3205244,7.63682416 53.5579777,7.84808445 54.7954309,8.27060505 C55.1113765,8.37623519 55.5852947,8.53468042 56.2171857,8.77234825 L57.0070495,5.99779636 C55.7959251,5.46964562 55.2693492,5.28479286 54.4268278,5.07353256 C53.3210185,4.80945719 52.0572365,4.67741951 50.7934544,4.67741951 C47.7919721,4.67741951 45.7909838,5.36401547 44.0006259,7.00304327 C42.1312816,8.71953317 41.1290323,11.0169889 41.1290323,13.6577426 C41.1290323,19.0448801 45.132764,22.7419353 50.8987696,22.7419353 C52.3468532,22.7419353 53.4263337,22.5834901 55.2693492,22.1609695 L57.0333783,21.7384489 L57.0333783,21.7384489 Z M73.7784905,22.3986373 L69.4605685,14.9253044 C70.9086521,14.5291913 71.5142143,14.1594858 72.1724341,13.3144446 C72.8043252,12.4694034 73.1202707,11.3866944 73.1202707,10.03991 C73.1202707,8.40264273 72.6463524,7.13508095 71.6985159,6.26187173 C70.671693,5.28479286 69.5132261,4.96790242 66.985662,4.96790242 L61.1933276,4.96790242 L61.1933276,22.3986373 L64.5107555,22.3986373 L64.5107555,15.4270476 L66.1694694,15.4270476 L70.1451171,22.3986373 L73.7784905,22.3986373 L73.7784905,22.3986373 Z M69.6975276,10.1191326 C69.6975276,11.8620301 68.7760199,12.6014411 66.6697165,12.6014411 L64.5107555,12.6014411 L64.5107555,7.79526938 L66.6697165,7.79526938 C68.8286775,7.79526938 69.6975276,8.4554578 69.6975276,10.1191326 L69.6975276,10.1191326 Z M90.5780155,15.5854928 L90.5780155,4.96790242 L87.2605876,4.96790242 L87.2605876,15.7703456 C87.2605876,18.2790616 85.9178192,19.6522535 83.3902551,19.6522535 C80.6239766,19.6522535 79.2812082,18.3582842 79.2812082,15.7703456 L79.2812082,4.96790242 L75.9901091,4.96790242 L75.9901091,15.5854928 C75.9901091,18.7808048 76.5693425,20.2332193 78.3597004,21.4743736 C79.6761401,22.3722298 81.0996501,22.7419353 83.2849399,22.7419353 C85.4439009,22.7419353 86.9183133,22.3458223 88.1820954,21.4743736 C89.9987821,20.2068118 90.5780155,18.7808048 90.5780155,15.5854928 L90.5780155,15.5854928 Z M109.798034,22.5570826 L109.798034,4.96790242 L106.664908,4.96790242 L106.664908,17.9093561 C106.454278,17.3547978 106.243647,16.8002395 105.7434,16.0080134 L98.7136125,4.96790242 L94.8959375,4.96790242 L94.8959375,22.3986373 L98.0553926,22.3986373 L98.0553926,9.61738943 C98.134379,9.90787234 98.1870366,10.0135025 98.2923518,10.2247628 L98.8715852,11.2810643 L106.322634,22.5570826 L109.798034,22.5570826 L109.798034,22.5570826 Z M129.888658,13.6313351 C129.888658,11.3602869 129.046137,9.14205377 127.545396,7.53119401 C125.834024,5.70731345 123.780378,4.96790242 120.487524,4.96790242 L114.03697,4.96790242 L114.03697,22.3986373 L120.461195,22.3986373 C123.596077,22.3986373 125.886682,21.5535962 127.492738,19.8371063 C129.019808,18.199839 129.888658,15.9551983 129.888658,13.6313351 L129.888658,13.6313351 Z M126.307943,13.6577426 C126.307943,17.3812053 124.096324,19.4674007 120.14525,19.4674007 L117.51237,19.4674007 L117.51237,7.90089953 L120.14525,7.90089953 C122.040923,7.90089953 123.385447,8.24419751 124.306954,8.93079347 C125.544408,9.85505727 126.307943,11.6771773 126.307943,13.6577426 L126.307943,13.6577426 Z M144.106206,6.12983404 C142.94774,5.57527577 142.473821,5.39042301 141.6313,5.12634764 C140.551819,4.80945719 139.524996,4.67741951 138.36653,4.67741951 C136.339213,4.67741951 135.259732,4.96790242 133.99595,5.83935114 C133.443045,6.23546419 132.995456,6.68439232 132.705839,7.13508095 C132.284578,7.79526938 132.021291,8.69312564 132.021291,9.56457436 C132.021291,11.465917 132.969127,12.6278487 136.049596,14.3971536 L138.735133,15.9287908 C139.867271,16.5625717 140.262203,17.0643149 140.262203,17.8037259 C140.262203,18.8600274 139.261709,19.5466234 137.734639,19.5466234 C137.05009,19.5466234 136.102253,19.3617706 135.233403,19.0448801 C134.548855,18.7808048 134.022279,18.5167294 132.758497,17.8301334 L131.363071,20.8934077 L132.495209,21.4215585 C134.311895,22.2665997 134.891129,22.47786 136.128582,22.6363052 C136.628829,22.7155278 137.155405,22.7419353 137.681981,22.7419353 C141.525985,22.7419353 143.790261,20.9198153 143.790261,17.8037259 C143.790261,16.5889792 143.342671,15.4270476 142.605465,14.6876365 C141.789273,13.8690029 140.051572,12.7598863 137.392364,11.3338793 C136.154911,10.6736909 135.73365,10.2247628 135.73365,9.48535175 C135.73365,8.50827288 136.734144,7.87449199 138.287543,7.87449199 C139.44601,7.87449199 140.946751,8.29701258 142.789767,9.11564623 L144.106206,6.12983404 L144.106206,6.12983404 Z M160.351072,22.3986373 L154.05849,4.96790242 L151.083336,4.96790242 L144.790755,22.3986373 L148.266156,22.3986373 L149.68791,18.0942088 L155.506574,18.0942088 L156.875671,22.3986373 L160.351072,22.3986373 L160.351072,22.3986373 Z M154.611395,15.2686024 L150.583089,15.2686024 L152.584078,8.95720101 L154.611395,15.2686024 L154.611395,15.2686024 Z M173.069634,22.3986373 L173.069634,19.5730309 L165.959104,19.5730309 L165.959104,4.96790242 L162.641676,4.96790242 L162.641676,22.3986373 L173.069634,22.3986373 L173.069634,22.3986373 Z M189.4988,21.7384489 L189.4988,14.6084139 L186.181372,14.6084139 L186.181372,19.4145857 C185.15455,19.7050686 184.70696,19.7842912 183.917096,19.7842912 C180.046764,19.7842912 177.07161,17.0643149 177.07161,13.4992974 C177.07161,10.03991 179.783476,7.63682416 183.680137,7.63682416 C184.785946,7.63682416 186.0234,7.84808445 187.260853,8.27060505 C187.576798,8.37623519 188.050717,8.53468042 188.682608,8.77234825 L189.472472,5.99779636 C188.261347,5.46964562 187.734771,5.28479286 186.89225,5.07353256 C185.786441,4.80945719 184.522658,4.67741951 183.258876,4.67741951 C180.257394,4.67741951 178.256406,5.36401547 176.466048,7.00304327 C174.596704,8.71953317 173.594454,11.0169889 173.594454,13.6577426 C173.594454,19.0448801 177.598186,22.7419353 183.364192,22.7419353 C184.812275,22.7419353 185.891756,22.5834901 187.734771,22.1609695 L189.4988,21.7384489 L189.4988,21.7384489 Z"
      id="Fill-2" fill="#1A1918"></path>
    <path
      d="M0,27.4193548 L27.4631403,27.4193548 L27.4631403,0 L0,0 L0,27.4193548 Z M4.67025337,22.7565474 L22.7947177,22.7565474 L22.7947177,4.66097959 L4.67025337,4.66097959 L4.67025337,22.7565474 Z"
      id="Fill-3" fill="#1A1918"></path>
  </g>
</svg>