<svg viewBox="0 0 50 50" xmlns="http://www.w3.org/2000/svg" xmlns:xlink="http://www.w3.org/1999/xlink">
  <title>
    camera
  </title>
  <defs>
    <circle id="a" cx="25" cy="25" r="25"/>
    <mask id="b" x="0" y="0" width="50" height="50" fill="#fff">
      <use xlink:href="#a"/>
    </mask>
  </defs>
  <g fill="none" fill-rule="evenodd">
    <use stroke="#ffffff" mask="url(#b)" stroke-width="4" xlink:href="#a"/>
    <path d="M25.5 21.335c-2.872 0-5.208 2.337-5.208 5.21 0 2.87 2.336 5.207 5.208 5.207 2.872 0 5.208-2.336 5.208-5.208 0-2.872-2.336-5.21-5.208-5.21zm0 8.334c-1.723 0-3.125-1.403-3.125-3.126 0-1.723 1.402-3.125 3.125-3.125s3.125 1.4 3.125 3.124c0 1.723-1.402 3.125-3.125 3.125z" fill="#ffffff"/>
    <path d="M33.833 19.252h-3.61l-1.464-2.196c-.388-.582-1.036-.93-1.734-.93h-3.052c-.698 0-1.346.348-1.733.93l-1.464 2.196h-3.61c-1.148 0-2.083.934-2.083 2.083v11.46c0 1.148.935 2.082 2.084 2.082h16.666c1.15 0 2.084-.934 2.084-2.083v-11.46c0-1.148-.935-2.082-2.084-2.082zM17.167 32.794v-11.46h4.724l2.084-3.124h3.052l2.083 3.125h4.723v11.46H17.168z" fill="#ffffff"/>
  </g>
</svg>
