<svg viewBox="0 0 50 50" xmlns="http://www.w3.org/2000/svg" xmlns:xlink="http://www.w3.org/1999/xlink">
  <defs>
    <circle id="a" cx="25" cy="25" r="25"/>
    <mask id="b" x="0" y="0" width="50" height="50" fill="#fff">
      <use xlink:href="#a"/>
    </mask>
  </defs>
  <g fill="none" fill-rule="evenodd">
    <use stroke="#1A1918" mask="url(#b)" stroke-width="4" xlink:href="#a"/>
    <path d="M24.5 34.516C27.103 31.31 31 25.82 31 21.67 31 17.99 28.085 15 24.5 15S18 17.992 18 21.67c0 4.15 3.9 9.643 6.5 12.846zm0-17.292c2.39 0 4.333 1.994 4.333 4.445 0 2.784-2.64 6.992-4.333 9.312-1.693-2.318-4.333-6.523-4.333-9.313 0-2.452 1.944-4.446 4.333-4.446z" fill="#1A1918"/>
    <ellipse fill="#1A1918" cx="24.5" cy="21.669" rx="2.167" ry="2.222"/>
  </g>
</svg>
