<svg viewBox="0 0 50 50" xmlns="http://www.w3.org/2000/svg" xmlns:xlink="http://www.w3.org/1999/xlink">
  <defs>
    <circle id="a" cx="25" cy="25" r="25"/>
    <mask id="b" x="0" y="0" width="50" height="50" fill="#fff">
      <use xlink:href="#a"/>
    </mask>
  </defs>
  <g fill="none" fill-rule="evenodd">
    <use class="icon-color" stroke="#1A1918" mask="url(#b)" stroke-width="4" xlink:href="#a"/>
    <path class="icon-color" d="M24.2 34c-.362 0-.692-.217-.83-.554l-6.3-15.21c-.14-.334-.064-.72.194-.974.257-.256.643-.332.98-.195l15.3 6.263c.358.148.582.508.554.893-.028.386-.302.71-.68.804l-6.675 1.66-1.67 6.636c-.093.374-.42.647-.806.674L24.2 34zm-4.646-14.46l4.436 10.71 1.137-4.52c.08-.32.333-.57.655-.65l4.546-1.13-10.774-4.41z" fill="#000"/>
  </g>
</svg>
