<svg viewBox="0 0 36 40" xmlns="http://www.w3.org/2000/svg">
  <g fill="none" fill-rule="evenodd">
    <path d="M5.385 33.885v3.653c0 .808.654 1.462 1.46 1.462h26.31c.806 0 1.46-.654 1.46-1.462V9.768M23.654 1H6.846c-.807 0-1.46.654-1.46 1.462v16.076M34.615 9.77L25.845 1" stroke="#000" stroke-width="2"/>
    <path d="M25.846 1v5.846c0 1.614 1.31 2.923 2.923 2.923h5.845" stroke="#000" stroke-width="2"/>
    <g fill="#000">
      <path d="M8.083 23.505v4.533H6.83v-4.533H5.236V22.42h4.437v1.085M13.75 22.42h1.51l-1.75 2.71 1.896 2.908h-1.528L12.68 26.19l-1.19 1.848H9.98l1.89-2.877-1.762-2.74h1.503l1.07 1.663M18.557 23.505v4.533h-1.254v-4.533H15.71V22.42h4.438v1.085"/>
    </g>
    <path stroke="#000" stroke-width="2" d="M1 18.538h23.385v13.154H1z"/>
  </g>
</svg>
