<svg width="50" height="50" viewBox="0 0 50 50" xmlns="http://www.w3.org/2000/svg" xmlns:xlink="http://www.w3.org/1999/xlink">
  <defs>
    <circle id="b" cx="25" cy="25" r="22"/>
    <filter x="-50%" y="-50%" width="200%" height="200%" filterUnits="objectBoundingBox" id="a">
      <feOffset in="SourceAlpha" result="shadowOffsetOuter1"/>
      <feGaussianBlur stdDeviation="2" in="shadowOffsetOuter1" result="shadowBlurOuter1"/>
      <feColorMatrix values="0 0 0 0 0 0 0 0 0 0 0 0 0 0 0 0 0 0 0.5 0" in="shadowBlurOuter1"/>
    </filter>
  </defs>
  <g fill="none" fill-rule="evenodd">
    <use fill="#000" filter="url(#a)" xlink:href="#b"/>
    <use fill="#16A085" xlink:href="#b"/>
    <path d="M31.874 25.006H19.058c-.373 0-.68-.32-.68-.686 0-.06.01-.13.023-.185l.683-4.762c.058-.31.337-.37.67-.37H31.18c.332 0 .613.055.67.363l.683 4.85c.01.056.024.09.024.15 0 .365-.31.64-.683.64zm-.512 5.342c-.722 0-1.307-.568-1.307-1.276 0-.703.585-1.27 1.307-1.27.716 0 1.303.567 1.303 1.27 0 .708-.587 1.276-1.303 1.276zm-11.808 0c-.717 0-1.302-.568-1.302-1.276 0-.703.585-1.27 1.302-1.27.723 0 1.308.567 1.308 1.27 0 .708-.585 1.276-1.308 1.276zm2.25-14.147h8.004v1.202h-8.005c-.8 0-.8-1.2 0-1.2zM33.09 18.04c-.233-1.126-.915-1.58-2.03-2.033-1.11-.45-3.688-.992-5.626-.992-1.947 0-4.537.54-5.65.992-1.113.454-1.785.907-2.017 2.033L17 24.306v8.706h1.2v.8c0 1.6 2.002 1.6 2.002 0v-.8h10.006v.8c0 1.6 2.402 1.6 2.402 0v-.8h1.2v-8.706l-.72-6.268z" fill="#FFF" fill-rule="nonzero"/>
    <g fill-rule="nonzero" fill="#000">
      <path d="M804.475-485.763c0-70.666-25-131-75-181s-110.334-75-181-75c-70.667 0-131 25-181 75s-75 110.334-75 181c0 70.667 25 131 75 181s110.333 75 181 75c70.666 0 131-25 181-75s75-110.333 75-181zm256 0c0 72.667-11 132.334-33 179l-364 774c-10.667 22-26.5 39.334-47.5 52-21 12.667-43.5 19-67.5 19s-46.5-6.333-67.5-19c-21-12.666-36.5-30-46.5-52l-365-774c-22-46.666-33-106.333-33-179 0-141.333 50-262 150-362s220.666-150 362-150c141.333 0 262 50 362 150s150 220.667 150 362z"/>
    </g>
  </g>
</svg>
