<svg width="50" height="50" viewBox="0 0 50 50" xmlns="http://www.w3.org/2000/svg" xmlns:xlink="http://www.w3.org/1999/xlink">
  <defs>
    <circle id="b" cx="25" cy="25" r="22"/>
    <filter x="-50%" y="-50%" width="200%" height="200%" filterUnits="objectBoundingBox" id="a">
      <feOffset in="SourceAlpha" result="shadowOffsetOuter1"/>
      <feGaussianBlur stdDeviation="2" in="shadowOffsetOuter1" result="shadowBlurOuter1"/>
      <feColorMatrix values="0 0 0 0 0 0 0 0 0 0 0 0 0 0 0 0 0 0 0.5 0" in="shadowBlurOuter1"/>
    </filter>
  </defs>
  <g fill="none" fill-rule="evenodd">
    <use fill="#000" filter="url(#a)" xlink:href="#b"/>
    <use fill="#F5A623" xlink:href="#b"/>
    <path d="M31.96 22.322h-.12c-.032-.056-.07-.11-.115-.158l-5.02-5.326c.022-.107.036-.217.036-.33 0-.833-.618-1.508-1.383-1.508h-1.58c-.765 0-1.385.675-1.385 1.507 0 .114.014.224.036.33l-5.02 5.327c-.045.05-.083.102-.116.158H15v3.014h.87v6.46c0 1.19.973 2.154 2.174 2.154H31.96c1.2 0 2.173-.964 2.173-2.153v-6.46h.87V22.32H31.96zm-8.184-4.307h1.582l.07-.008 4.066 4.315H19.64l4.065-4.315.07.008zm-3.993 13.35c0 .475-.39.862-.87.862-.478 0-.87-.387-.87-.86v-5.17c0-.473.392-.86.87-.86.48 0 .87.387.87.86v5.17zm3.914 0c0 .475-.39.862-.87.862-.478 0-.87-.387-.87-.86v-5.17c0-.473.392-.86.87-.86.48 0 .87.387.87.86v5.17zm4.348 0c0 .475-.39.862-.87.862-.478 0-.87-.387-.87-.86v-5.17c0-.473.392-.86.87-.86.48 0 .87.387.87.86v5.17zm3.914 0c0 .475-.392.862-.87.862-.48 0-.87-.387-.87-.86v-5.17c0-.473.39-.86.87-.86.478 0 .87.387.87.86v5.17z" fill="#FFF" fill-rule="nonzero"/>
  </g>
</svg>
